<svg id="Layer_1" height="512" viewBox="0 0 512 512" width="512" xmlns="http://www.w3.org/2000/svg" data-name="Layer 1"><circle cx="256" cy="256" fill="#a0eaea" r="148"/><path d="m138 256a148.018 148.018 0 0 1 133-147.248 149.887 149.887 0 0 0 -15-.752 148 148 0 0 0 0 296 149.887 149.887 0 0 0 15-.752 148.018 148.018 0 0 1 -133-147.248z" fill="#8dc6c4"/><path d="m279.16 316.06.04.01a48.709 48.709 0 0 1 -46.4 0l.04-.01v-20.99a48.551 48.551 0 0 0 46.32 0z" fill="#efc597"/><path d="m422.18 75.99-51.18 53.13a171 171 0 0 0 -204.39-19.21l-40.46-61.76a245.189 245.189 0 0 1 296.03 27.84z" fill="#f3ce7d"/><path d="m261.71 199.1c-23.27 6.34-46.39 5.15-46.39 5.15l-.86 18.91a6.956 6.956 0 0 1 -10.51 5.69v-26.79a52.06 52.06 0 1 1 104.12 0v17.96c-31.68-2.04-46.36-20.92-46.36-20.92z" fill="#6d7486"/><path d="m336.38 380 .13.2a148.083 148.083 0 0 1 -161.01-.01l.12-.19v-26.14a26.045 26.045 0 0 1 .62-5.84c.08-.35.17-.69.26-1.03a27.252 27.252 0 0 1 18.01-18.5l38.29-12.42a48.709 48.709 0 0 0 46.4 0l38.29 12.42a27.252 27.252 0 0 1 18.01 18.5c.09.34.18.68.26 1.03a26.045 26.045 0 0 1 .62 5.84z" fill="#5fa8ed"/><path d="m426.48 273h73.94a245 245 0 0 1 -417.66 156.25 245.006 245.006 0 0 1 0-346.49 249.464 249.464 0 0 1 26.96-23.35l40.54 61.88a171.117 171.117 0 0 0 -65.58 134.71c0 94.47 76.85 171.36 171.32 171.36 88.75 0 161.96-68.36 170.48-154.36z" fill="#e87187"/><path d="m500.96 253h-73.68a170.388 170.388 0 0 0 -42.33-109.67l51.31-53.25a243.025 243.025 0 0 1 64.7 162.92z" fill="#4ca987"/><path d="m279.16 295.07a48.551 48.551 0 0 1 -46.32 0 49.253 49.253 0 0 1 -7.82-5.29 48.454 48.454 0 0 1 -16.7-28.38l-2.7-9.27v-.08a13.1 13.1 0 0 1 -10.81-12.89 13.39 13.39 0 0 1 .37-3.12 9.84 9.84 0 0 1 8.77-7.49v.3a6.956 6.956 0 0 0 10.51-5.69l.86-18.91s23.12 1.19 46.39-5.15c0 0 14.68 18.88 46.36 20.92v8.53a9.842 9.842 0 0 1 8.75 7.49 13.39 13.39 0 0 1 .37 3.12 13.087 13.087 0 0 1 -10.81 12.89v.08l-2.7 9.27a48.485 48.485 0 0 1 -24.52 33.67z" fill="#ffd8b7"/><path d="m112.76 429.25a245.006 245.006 0 0 1 0-346.49q3.7-3.7 7.533-7.211l-10.573-16.139a249.464 249.464 0 0 0 -26.96 23.35 245.015 245.015 0 0 0 173.24 418.26c5.027 0 10.028-.169 15-.467a243.227 243.227 0 0 1 -158.24-71.303z" fill="#ad5e73"/><path d="m271.481 11.493c-5.133-.318-10.293-.493-15.481-.493a243.408 243.408 0 0 0 -129.85 37.15l9.788 14.941a243.815 243.815 0 0 1 135.543-51.598z" fill="#b59a6b"/><g fill="#284268"><path d="m231.609 142.269a6.054 6.054 0 0 0 1.2-.121c1.95-.4 3.938-.744 5.909-1.037a6 6 0 0 0 -1.77-11.869c-2.174.324-4.368.709-6.519 1.145a6 6 0 0 0 1.183 11.882z"/><path d="m133.834 262a6 6 0 0 0 6-6 116.048 116.048 0 0 1 70.717-106.94 6 6 0 0 0 -4.7-11.042 128.031 128.031 0 0 0 -78.017 117.982 6 6 0 0 0 6 6z"/><path d="m135.676 171.985a6.019 6.019 0 0 0 -9.311 1 153.185 153.185 0 0 0 -24.255 88.183c2.682 81.339 69.054 146.971 150.417 148.783 87.69 1.952 159.431-69.806 157.453-157.5-1.846-81.809-68.21-148.351-150.014-150.411a153.361 153.361 0 0 0 -104.807 37.673 6.105 6.105 0 0 0 -1.082 8.164 6.009 6.009 0 0 0 8.839.989 141.4 141.4 0 0 1 95.684-34.852c76.185 1.361 138.044 63.581 139.21 139.769a141.606 141.606 0 0 1 -55.81 114.844v-14.627l-.249-2.61a33.172 33.172 0 0 0 -21.169-28.1q-.675-.249-1.364-.473l-34.218-11.117v-13.211a55.811 55.811 0 0 0 24.443-35.684l1.764-5.935a18.964 18.964 0 0 0 11.393-22.257 16.368 16.368 0 0 0 -8.6-10.547v-21.188c0-31.864-25.332-58.438-57.193-58.873a58.073 58.073 0 0 0 -58.807 58.058v21.993a16.4 16.4 0 0 0 -8.62 10.557 19.048 19.048 0 0 0 11.38 22.257l1.8 5.935c2.94 15.167 11.44 27.858 24.44 35.684v13.211l-34.265 11.085q-.677.219-1.338.464a33.152 33.152 0 0 0 -21.18 28.309l-.217 2.442v14.489a141.638 141.638 0 0 1 -33.45-189.015 6 6 0 0 0 -.844-7.482zm120.298-15.985a46.084 46.084 0 0 1 46.026 46.063v11.285c-14-2.033-23.033-7.331-28.784-11.658a80.45 80.45 0 0 0 20.805-11.183 6 6 0 1 0 -7.289-9.522c-25.213 19.338-70.65 17.3-71.1 17.274a5.976 5.976 0 0 0 -4.339 1.55 6.056 6.056 0 0 0 -1.359 1.774 46.1 46.1 0 0 1 46.04-45.583zm-41.758 104.292c-.036-.19-.081-.379-.135-.565l-2.572-8.848a6 6 0 0 0 -4.851-4.739 7.1 7.1 0 0 1 -5.648-8.674 3.72 3.72 0 0 1 1.924-2.481 12.822 12.822 0 0 0 4.555.845 13.018 13.018 0 0 0 12.968-12.4l.595-13.08a172.739 172.739 0 0 0 38.648-4.535c5.509 5.485 19.3 16.685 42.3 19.65v3.2a6.031 6.031 0 0 0 6.037 6c.042 0 .1 0 .143-.006a3.794 3.794 0 0 1 2.8 2.811 7.082 7.082 0 0 1 -5.642 8.674 6.055 6.055 0 0 0 -4.773 4.477l-2.647 9.11c-.054.186-.1.375-.135.565a42.516 42.516 0 0 1 -83.568 0zm58.784 43.881v8.163a42.4 42.4 0 0 1 -34 0v-8.163a53.368 53.368 0 0 0 34 0zm-91 49.827.078-1.086a21.08 21.08 0 0 1 13.152-18.264q.579-.224 1.175-.417l35.9-11.666a55.186 55.186 0 0 0 47.414-.013l35.927 11.646q.579.188 1.143.405a21.067 21.067 0 0 1 13.171 18.649l.04.746v22.912c-21 13.389-46.854 21.115-74.172 21.079a137.941 137.941 0 0 1 -73.828-21.199z"/><path d="m428.18 75.821a6 6 0 0 0 -1.924-4.232 251.193 251.193 0 0 0 -303.3-28.523 6 6 0 0 0 -1.83 8.371l40.46 61.758a6 6 0 0 0 8.159 1.825 165 165 0 0 1 197.221 18.546 6 6 0 0 0 8.353-.281l51.181-53.129a6 6 0 0 0 1.68-4.335zm-57.526 45.013a177.009 177.009 0 0 0 -202.168-19.009l-33.922-51.779a239.257 239.257 0 0 1 279 26.251z"/><path d="m436.321 84.078a5.966 5.966 0 0 0 -4.386 1.837l-51.3 53.255a6 6 0 0 0 -.195 8.113 165.261 165.261 0 0 1 40.843 105.817 6 6 0 0 0 6 5.9h73.681a6 6 0 0 0 6-6.071 250.17 250.17 0 0 0 -66.3-166.92 6 6 0 0 0 -4.343-1.931zm-3.24 162.922a177.312 177.312 0 0 0 -40.043-103.409l43.062-44.706a238.149 238.149 0 0 1 58.715 148.115z"/><path d="m500.415 267h-73.93a6 6 0 0 0 -5.971 5.408 165.965 165.965 0 0 1 -164.514 148.949c-91.158 0-165.321-74.178-165.321-165.357a164.509 164.509 0 0 1 63.291-129.991 6 6 0 0 0 1.309-8l-40.54-61.88a6 6 0 0 0 -8.611-1.519 255.484 255.484 0 0 0 -27.612 23.908 251.013 251.013 0 1 0 427.884 194.888 6 6 0 0 0 -5.985-6.406zm-75.415 158.036a239.013 239.013 0 0 1 -338-338.036 243.9 243.9 0 0 1 21.245-18.892l34.026 51.937a176.345 176.345 0 0 0 -63.592 135.955c0 97.8 79.546 177.357 177.321 177.357a178.006 178.006 0 0 0 175.834-154.357h62.073a238.536 238.536 0 0 1 -68.907 146.036z"/></g></svg>